<svg width="18" height="15" viewBox="0 0 18 15" fill="none" xmlns="http://www.w3.org/2000/svg">
<path d="M10.6875 4.33333H9.50002V8.29167L12.8884 10.3025L13.4584 9.34458L10.6875 7.69792V4.33333ZM10.2917 0.375C8.40202 0.375 6.58975 1.12567 5.25355 2.46186C3.91735 3.79806 3.16669 5.61033 3.16669 7.5H0.791687L3.92669 10.6904L7.12502 7.5H4.75002C4.75002 6.03026 5.33387 4.62071 6.37314 3.58145C7.4124 2.54219 8.82195 1.95833 10.2917 1.95833C11.7614 1.95833 13.171 2.54219 14.2102 3.58145C15.2495 4.62071 15.8334 6.03026 15.8334 7.5C15.8334 8.96974 15.2495 10.3793 14.2102 11.4186C13.171 12.4578 11.7614 13.0417 10.2917 13.0417C8.76377 13.0417 7.37835 12.4163 6.38085 11.4108L5.25669 12.535C6.5471 13.8333 8.31252 14.625 10.2917 14.625C12.1814 14.625 13.9936 13.8743 15.3298 12.5381C16.666 11.2019 17.4167 9.38967 17.4167 7.5C17.4167 5.61033 16.666 3.79806 15.3298 2.46186C13.9936 1.12567 12.1814 0.375 10.2917 0.375Z" fill="#F4DA47"/>
</svg>
