<svg width="19" height="14" viewBox="0 0 19 14" fill="none" xmlns="http://www.w3.org/2000/svg">
<path d="M3.95768 0.75H18.2077V10.25H3.95768V0.75ZM11.0827 3.125C11.7126 3.125 12.3167 3.37522 12.7621 3.82062C13.2075 4.26602 13.4577 4.87011 13.4577 5.5C13.4577 6.12989 13.2075 6.73398 12.7621 7.17938C12.3167 7.62478 11.7126 7.875 11.0827 7.875C10.4528 7.875 9.8487 7.62478 9.4033 7.17938C8.9579 6.73398 8.70768 6.12989 8.70768 5.5C8.70768 4.87011 8.9579 4.26602 9.4033 3.82062C9.8487 3.37522 10.4528 3.125 11.0827 3.125ZM7.12435 2.33333C7.12435 2.75326 6.95753 3.15599 6.6606 3.45292C6.36367 3.74985 5.96094 3.91667 5.54102 3.91667V7.08333C5.96094 7.08333 6.36367 7.25015 6.6606 7.54708C6.95753 7.84401 7.12435 8.24674 7.12435 8.66667H15.041C15.041 8.24674 15.2078 7.84401 15.5048 7.54708C15.8017 7.25015 16.2044 7.08333 16.6243 7.08333V3.91667C16.2044 3.91667 15.8017 3.74985 15.5048 3.45292C15.2078 3.15599 15.041 2.75326 15.041 2.33333H7.12435ZM0.791016 3.91667H2.37435V11.8333H15.041V13.4167H0.791016V3.91667Z" fill="#858585"/>
</svg>
