<svg width="18" height="18" viewBox="0 0 18 18" fill="none" xmlns="http://www.w3.org/2000/svg">
<path d="M8.99935 15C6.91602 15 5.07435 13.9333 3.99935 12.3333C4.02435 10.6667 7.33268 9.74999 8.99935 9.74999C10.666 9.74999 13.9743 10.6667 13.9993 12.3333C12.9243 13.9333 11.0827 15 8.99935 15ZM8.99935 3.16666C9.66239 3.16666 10.2983 3.43005 10.7671 3.89889C11.236 4.36773 11.4993 5.00362 11.4993 5.66666C11.4993 6.3297 11.236 6.96558 10.7671 7.43442C10.2983 7.90326 9.66239 8.16666 8.99935 8.16666C8.33631 8.16666 7.70042 7.90326 7.23158 7.43442C6.76274 6.96558 6.49935 6.3297 6.49935 5.66666C6.49935 5.00362 6.76274 4.36773 7.23158 3.89889C7.70042 3.43005 8.33631 3.16666 8.99935 3.16666ZM8.99935 0.666656C7.905 0.666656 6.82137 0.882205 5.81032 1.30099C4.79927 1.71978 3.88061 2.33361 3.10679 3.10743C1.54399 4.67024 0.666016 6.78985 0.666016 8.99999C0.666016 11.2101 1.54399 13.3297 3.10679 14.8925C3.88061 15.6664 4.79927 16.2802 5.81032 16.699C6.82137 17.1178 7.905 17.3333 8.99935 17.3333C11.2095 17.3333 13.3291 16.4553 14.8919 14.8925C16.4547 13.3297 17.3327 11.2101 17.3327 8.99999C17.3327 4.39166 13.5827 0.666656 8.99935 0.666656Z" fill="#858585"/>
</svg>
